<svg width="150" height="151" viewBox="0 0 150 151" fill="none" xmlns="http://www.w3.org/2000/svg">
<path d="M130 75.5C129.984 78.6905 129.274 81.8374 127.921 84.7124C126.568 87.5875 124.606 90.1184 122.178 92.1218L59.8444 144.737C56.0918 147.811 51.57 149.746 46.7944 150.32C42.0187 150.895 37.1813 150.086 32.8333 147.986C29.0545 146.283 25.8351 143.503 23.5594 139.98C21.2837 136.456 20.0481 132.337 20 128.115L20 22.8853C20.0481 18.6629 21.2837 14.5439 23.5594 11.0203C25.835 7.49664 29.0545 4.71728 32.8333 3.01413C37.1813 0.914123 42.0187 0.105269 46.7944 0.679778C51.57 1.25427 56.0918 3.18899 59.8444 6.26347L122.178 58.8782C124.606 60.8816 126.568 63.4126 127.921 66.2876C129.274 69.1626 129.984 72.3095 130 75.5Z" fill="#5997E3"/>
</svg>
