<svg width="153" height="153" viewBox="0 0 153 153" fill="none" xmlns="http://www.w3.org/2000/svg">
<path fill-rule="evenodd" clip-rule="evenodd" d="M77.8783 147.182C77.1325 147.154 76.3137 147.118 75.5803 147.086C74.5767 147.042 73.7331 147.005 73.4561 147.005C57.1495 147.005 43.8759 138.955 42.6978 138.217C42.1855 137.974 40.1065 136.957 37.2053 135.151C34.1426 132.49 31.8878 129.653 30.72 126.881C31.4275 126.204 32.1659 125.53 32.9106 124.873C38.5793 134.357 56.7148 143.962 75.306 143.473C76.2317 143.201 80.6991 141.802 84.7124 138.962C85.6026 139.756 86.5211 140.534 87.4621 141.283C87.4125 141.331 87.3626 141.379 87.3126 141.427C86.2945 142.187 85.2485 142.858 84.2224 143.445C84.4743 143.416 84.7275 143.386 84.982 143.354C82.4946 145.154 79.8243 146.406 77.8783 147.182ZM124.029 130.939C115.652 137.886 99.9217 144.791 86.5586 146.708C88.1481 145.608 89.7078 144.302 91.072 142.776C94.3145 142.331 108.229 139.952 120.804 130.774C121.543 130.853 122.706 130.948 124.029 130.939ZM133.925 121.074C132.372 122.743 130.717 124.234 128.963 125.493C128.813 125.754 128.648 126.017 128.469 126.281C128.312 126.398 128.155 126.513 127.997 126.625C126.832 127.217 124.784 127.347 122.959 127.284C123.082 127.172 123.201 127.059 123.318 126.947C123.233 126.949 123.148 126.951 123.064 126.953C123.53 125.728 123.944 124.535 124.312 123.378C125.241 123.288 126.09 123.111 126.694 122.808C138.028 114.829 144.498 96.7819 146.372 84.7383C146.536 82.553 146.403 80.8537 146.218 79.6716C146.89 79.8938 147.395 80.1038 147.737 80.2604C148.009 81.254 148.464 83.5491 148.207 87.0291C146.636 97.2468 141.926 111.619 133.925 121.074ZM127.798 103.195C130.917 99.9969 138.311 91.503 142.646 79.1383C143.286 79.3007 143.816 79.4685 144.235 79.619C144.422 80.6416 144.596 82.2896 144.435 84.5245C143.517 90.3731 141.483 97.6907 138.309 104.503C135.137 111.31 130.912 117.43 125.701 121.155C125.52 121.229 125.26 121.304 124.917 121.368C125.479 119.386 125.904 117.524 126.224 115.804C127.55 110.353 127.819 105.982 127.798 103.195ZM34.4035 123.585C37.1204 121.288 39.7016 119.345 40.9399 118.433C45.0149 119.859 61.7498 125.48 72.4172 125.48C73.8698 127.416 77.9574 132.649 83.2594 137.632C79.8884 139.937 76.2085 141.192 74.9899 141.57C65.553 141.768 56.215 139.273 48.713 135.518C41.7914 132.054 36.7021 127.658 34.4035 123.585ZM72.6428 121.793C82.2045 112.99 91.9074 101.765 94.3795 98.8526C94.1785 98.1507 93.9326 97.3488 93.6502 96.4672C90.8187 99.7439 81.7242 110.051 72.7647 118.192C62.8698 118.237 46.0399 112.637 42.8316 111.536C35.9984 100.691 32.041 86.5931 31.0756 82.8743C30.4921 83.7242 30.0337 84.4021 29.7325 84.8507C30.6075 88.3108 34.695 103.373 41.8674 114.901C42.8561 115.245 45.1042 116.01 48.0416 116.911C54.8459 118.982 65.2013 121.707 72.5773 121.707C72.5986 121.735 72.6204 121.764 72.6428 121.793ZM109.289 8.89087L109.278 8.88545C108.35 8.40023 95.9238 2.026 80.8073 2.026C79.7241 2.026 78.6633 2.08248 77.6502 2.14866L77.5198 2.14586C65.939 1.89796 54.4596 4.80981 47.4707 7.90538L47.4706 7.90546C41.5845 10.5133 35.1398 14.7691 34.1218 15.4704C29.6482 17.9605 23.5076 23.8592 18.3781 30.2109C15.7699 33.4404 13.3659 36.857 11.525 40.1109C9.81412 43.1349 8.51448 46.1478 8.06745 48.8038C6.68702 50.754 5.51808 53.8391 4.61836 57.4241C3.63036 61.3607 2.90768 66.1468 2.64037 71.2613C2.59052 72.215 2.55638 73.1827 2.53944 74.1609C2.13966 84.3149 3.49961 95.663 8.08017 104.325C14.7251 129.231 39.7399 141.695 41.7299 142.652C42.9399 143.419 56.5723 151.793 73.3197 151.793C73.6042 151.793 74.4706 151.831 75.5013 151.876C77.015 151.943 78.8834 152.026 79.7846 152.026C97.887 152.026 124.712 139.348 130.327 129.417C144.932 118.803 152.878 92.3401 152.457 79.5172C152.501 78.0396 152.455 76.6817 152.314 75.4756C152.346 74.134 152.393 67.6678 150.711 59.5432C148.976 51.1646 145.366 40.851 137.832 32.6099C136.828 30.5742 133.354 24.8526 123.629 18.0494C116.898 12.859 109.912 9.20926 109.304 8.89842L109.289 8.89087ZM76.7325 7.55945V7.59049C77.9938 7.68234 79.6528 7.89485 81.1759 8.19136C81.7722 8.30744 82.3477 8.43639 82.8702 8.57602C83.0308 8.34869 83.1916 8.12807 83.3521 7.91599C81.4221 7.34717 78.6046 6.92987 76.6846 6.78829V6.756C54.9898 6.48773 37.1349 18.8999 36.2075 19.5606C35.94 19.8041 33.445 22.1787 31.775 25.3904C32.2139 25.3532 32.6545 25.3255 33.0952 25.3063C33.4459 24.6582 33.8302 24.0473 34.2198 23.4854C35.6348 21.4447 37.1202 20.0507 37.3206 19.8705C38.1958 19.2549 54.5498 8.02835 74.7851 7.56977C74.9825 7.5653 75.1802 7.56185 75.3784 7.55945C75.8279 7.55399 76.2793 7.55391 76.7325 7.55945ZM38.6896 25.4618C42.8705 25.8407 46.4522 26.6905 47.9949 27.0969C48.0632 27.0528 48.1317 27.009 48.2003 26.9652C46.3179 26.5024 42.7219 25.7343 38.6896 25.4618ZM76.5883 9.49583C77.5775 9.56786 78.8165 9.71839 80.0144 9.92273C78.9128 11.6613 77.9136 13.495 77.2249 14.8164C72.3595 15.6691 59.2458 18.4455 48.4629 25.0606C46.1286 24.4965 41.5574 23.5569 36.6479 23.46C37.52 22.3625 38.2971 21.5979 38.5569 21.3528C40.1871 20.2316 56.4958 9.42083 76.1792 9.46604L76.5883 9.49583ZM8.14058 78.8584C7.35473 80.9187 6.83959 83.0507 6.54018 85.1736C5.98018 79.5574 6.08268 73.8866 6.61018 68.8592C6.80975 71.8476 7.278 74.9864 8.1115 78.1007C8.11992 78.353 8.1296 78.6056 8.14058 78.8584ZM55.7933 113.448C50.6614 112.103 46.1768 110.645 44.1297 109.955C37.9913 99.9585 34.2741 87.3144 33.1194 82.997C34.5181 80.9599 37.4363 76.7831 40.7358 72.4673C44.2551 67.864 48.0575 63.306 50.8783 60.9163C55.4119 61.7341 68.4079 64.0733 80.9754 66.3066C83.1637 71.8896 89.4812 88.1509 91.7969 95.6564C88.6951 99.2267 80.3395 108.623 72.0069 116.274C67.4123 116.163 61.3188 114.896 55.7933 113.448ZM124.083 28.1579C126.207 30.2639 127.819 32.3561 128.66 34.3086C128.597 35.3859 128.346 37.7744 127.39 40.6316C122.859 38.6031 114.562 35.6228 103.767 34.9111C101.289 31.4691 94.6555 23.1193 84.6057 16.7685C85.1613 15.7619 85.7518 14.748 86.3229 13.8394C87.033 12.7098 87.6335 11.8745 88.0534 11.3934C88.3057 11.3597 88.6503 11.3328 89.1078 11.3328C91.8752 11.3328 95.8316 12.2441 99.3651 13.2738C102.624 14.2236 105.322 15.2123 106.001 15.4671C106.843 15.9099 111.548 18.4371 116.549 21.9736C119.18 23.8343 121.855 25.9478 124.083 28.1579ZM130.623 33.9799C130.598 34.9045 130.401 37.8622 129.159 41.4642C128.961 42.0408 128.735 42.6338 128.479 43.2377C128.984 43.4743 129.432 43.6939 129.819 43.8907C131.734 39.3277 132.002 35.3535 132.032 34.2357C128.204 24.1957 108.584 13.6986 107.577 13.1695C106.627 12.8044 95.712 8.69346 89.3945 8.69346C88.3896 8.69346 87.7295 8.80275 87.3045 8.92198C85.9921 10.0869 83.7471 13.9097 82.1346 17.0444C82.1645 17.0623 82.1944 17.0802 82.2242 17.098C83.7771 14.1563 85.8444 10.7186 87.0728 9.64194C87.4867 9.52731 88.1293 9.42223 89.1078 9.42223C95.259 9.42223 105.887 13.3747 106.812 13.7257C107.793 14.2344 126.896 24.3269 130.623 33.9799ZM127.463 42.7744C127.227 42.6634 126.977 42.548 126.713 42.4289C122.303 40.4402 113.988 37.4218 103.122 36.7853C103.209 36.9092 103.288 37.0241 103.359 37.1295C114.287 37.7117 122.749 40.6842 127.463 42.7744ZM15.1702 74.3218C16.9619 75.2614 21.0411 77.092 27.3587 78.2844C28.9773 75.9404 31.8611 71.8501 35.1059 67.6403C38.5645 63.1532 42.5534 58.3698 45.8993 55.479C44.6011 45.6998 44.8577 36.4807 45.1289 31.8235C41.7063 31.1148 36.0372 30.2733 31.4054 31.1355C30.345 31.6675 29.0022 32.7554 27.4685 34.3436C25.8756 35.9929 24.2083 38.0419 22.5976 40.2115C19.4759 44.4166 16.6561 48.9541 15.12 51.6251C14.6197 53.9573 12.6429 64.4507 15.1702 74.3218ZM47.0894 56.9965C47.1084 57.1345 47.1278 57.2726 47.1474 57.4107C40.3824 62.8207 29.675 78.3925 26.905 82.5034C18.3476 81.0527 13.2601 78.4099 11.7401 77.5156C8.55766 66.0473 11.1201 53.6525 11.5151 51.8765C14.6551 46.2976 23.595 32.0772 29.4925 29.3771C30.8868 29.0944 32.3597 28.9563 33.8396 28.9205C32.7979 28.9867 31.7699 29.1109 30.7824 29.3086C25.0402 31.9046 16.3356 45.5769 13.2783 50.9407C12.8937 52.6483 10.3986 64.5653 13.4973 75.5916C14.9773 76.4513 19.9309 78.9923 28.2631 80.387C30.8425 76.607 40.4907 62.7486 47.0894 56.9965ZM136.056 74.5338C132.227 85.9162 125.123 93.8903 122.44 96.6154C118.828 96.4334 109.356 95.7572 98.9064 93.4503C96.4222 85.4417 90.0455 69.053 87.895 63.5716C94.5082 54.3197 100.929 45.6805 103.509 42.2264C115.533 43.0736 124.16 47.1299 126.631 48.4223C133.804 59.9504 135.687 71.6262 136.056 74.5338ZM123.216 98.5635C120.368 98.4488 109.394 97.8351 97.3621 95.0624C95.213 87.7105 88.4516 70.312 86.1356 64.4058C86.0569 64.5174 85.9783 64.6291 85.8996 64.7408C87.687 69.341 95.5045 89.5652 97.872 97.7671C110.229 100.651 121.499 101.289 124.424 101.409C126.622 99.2525 135.274 90.1439 139.649 76.6165C139.402 74.371 137.594 60.928 129.357 47.7656C129.087 47.6157 128.661 47.3865 128.089 47.101C136.049 59.7199 137.799 72.5745 138.04 74.727C133.78 87.7331 125.355 96.4905 123.216 98.5635Z" fill="white"/>
</svg>
