<svg width="151" height="151" viewBox="0 0 151 151" fill="none" xmlns="http://www.w3.org/2000/svg">
<path d="M12.5371 129.057C12.5371 134.744 14.9684 140.198 19.2962 144.219C23.624 148.241 29.4937 150.5 35.6141 150.5H68.7871C69.1696 150.5 69.5365 150.359 69.807 150.107C70.0775 149.856 70.2294 149.515 70.2294 149.16V87.5103C70.2294 87.1549 70.0775 86.814 69.807 86.5626C69.5365 86.3113 69.1696 86.1701 68.7871 86.1701H15.4217C14.6567 86.1701 13.923 86.4525 13.382 86.9552C12.841 87.4579 12.5371 88.1396 12.5371 88.8505V129.057Z" fill="white"/>
<path d="M70.2294 74.1083L70.2294 37.9227L81.7679 37.9227L81.7679 74.1083C81.7679 74.4637 81.9198 74.8046 82.1903 75.056C82.4608 75.3073 82.8277 75.4485 83.2102 75.4485H133.691C135.656 75.4484 137.607 75.1368 139.46 74.5271C142.832 73.4148 145.75 71.3607 147.816 68.6464C149.882 65.9321 150.994 62.6905 150.999 59.366V54.0052C150.999 49.7399 149.175 45.6492 145.929 42.6332C142.684 39.6171 138.281 37.9227 133.691 37.9227H119.073C118.948 37.9209 118.825 37.8886 118.717 37.829C118.609 37.7694 118.519 37.6847 118.457 37.5831C118.395 37.4815 118.363 37.3667 118.364 37.25C118.364 37.1333 118.397 37.0187 118.46 36.9176C121.799 31.6804 122.883 25.464 121.496 19.5151C120.108 13.5662 116.352 8.32448 110.98 4.841C105.608 1.35752 99.0177 -0.110178 92.53 0.732195C86.0424 1.57457 80.1372 4.66474 75.9987 9.38308C71.8601 4.66474 65.9549 1.57457 59.4673 0.732195C52.9796 -0.110178 46.389 1.35752 41.0171 4.841C35.6452 8.32448 31.889 13.5662 30.5018 19.5151C29.1145 25.464 30.1988 31.6804 33.5371 36.9176C33.5999 37.0187 33.6333 37.1333 33.6338 37.25C33.6343 37.3667 33.602 37.4815 33.5401 37.5831C33.4781 37.6847 33.3887 37.7694 33.2807 37.829C33.1726 37.8886 33.0497 37.9209 32.9241 37.9227H18.3064C13.7161 37.9227 9.31379 39.6171 6.06796 42.6332C2.82214 45.6492 0.998657 49.7399 0.998657 54.0052V59.366C1.00375 62.6905 2.11538 65.9321 4.18112 68.6464C6.24687 71.3607 9.16559 73.4148 12.5371 74.5271C14.3898 75.1368 16.3409 75.4484 18.3064 75.4485H68.7871C69.1696 75.4485 69.5365 75.3073 69.807 75.056C70.0775 74.8046 70.2294 74.4637 70.2294 74.1083ZM81.7679 24.5206C81.7679 21.87 82.6138 19.2789 84.1986 17.0749C85.7834 14.871 88.036 13.1532 90.6715 12.1388C93.307 11.1244 96.207 10.859 99.0048 11.3762C101.803 11.8933 104.373 13.1697 106.39 15.044C108.407 16.9183 109.78 19.3063 110.337 21.9061C110.893 24.5058 110.608 27.2005 109.516 29.6494C108.424 32.0983 106.576 34.1915 104.204 35.6641C101.832 37.1367 99.0436 37.9227 96.191 37.9227H81.7679V24.5206ZM54.7751 11.1521C56.7511 11.0205 58.735 11.2686 60.6032 11.8808C62.4715 12.493 64.184 13.4563 65.634 14.7105C67.0839 15.9648 68.2403 17.4832 69.0309 19.171C69.8216 20.8588 70.2296 22.6799 70.2294 24.5207V37.9227H55.8064C52.0769 37.9138 48.4961 36.5629 45.8155 34.1535C43.1349 31.7441 41.563 28.4635 41.4295 25.0002C41.2961 21.537 42.6116 18.1603 45.0999 15.5789C47.5882 12.9976 51.0559 11.4122 54.7751 11.1555V11.1521Z" fill="white"/>
<path d="M83.2102 150.5H116.383C122.504 150.5 128.373 148.241 132.701 144.219C137.029 140.198 139.46 134.744 139.46 129.057V88.8505C139.46 88.1396 139.156 87.4579 138.615 86.9552C138.074 86.4525 137.341 86.1701 136.576 86.1701H83.2102C82.8277 86.1701 82.4608 86.3113 82.1904 86.5626C81.9199 86.814 81.7679 87.1549 81.7679 87.5103V149.16C81.7679 149.515 81.9199 149.856 82.1904 150.107C82.4608 150.359 82.8277 150.5 83.2102 150.5Z" fill="white"/>
</svg>
