<svg width="150" height="151" viewBox="0 0 150 151" fill="none" xmlns="http://www.w3.org/2000/svg">
<path d="M93.9254 82.1888C90.2215 78.4929 90.2215 72.4923 93.9254 68.7965L124.465 38.3239C126.096 36.6924 127.012 34.4797 127.012 32.1725C127.012 29.8652 126.096 27.6525 124.465 26.021C122.833 24.3895 120.621 23.473 118.314 23.473C116.007 23.473 113.795 24.3895 112.163 26.021L81.6971 56.5627C78.0011 60.2678 71.9989 60.2678 68.3029 56.5627L37.8366 26.021C36.2054 24.3895 33.9929 23.473 31.686 23.473C29.3791 23.473 27.1667 24.3895 25.5354 26.021C23.9042 27.6525 22.9878 29.8652 22.9878 32.1725C22.9878 34.4797 23.9042 36.6924 25.5354 38.3239L56.0746 68.7965C59.7786 72.4923 59.7785 78.493 56.0746 82.1888L25.5354 112.661C24.7235 113.467 24.079 114.425 23.6392 115.481C23.1994 116.537 22.973 117.669 22.973 118.813C22.973 119.957 23.1994 121.089 23.6392 122.145C24.079 123.201 24.7235 124.159 25.5354 124.964C26.3407 125.776 27.2988 126.421 28.3545 126.861C29.4101 127.301 30.5424 127.527 31.686 127.527C32.8296 127.527 33.9619 127.301 35.0175 126.861C36.0732 126.421 37.0313 125.776 37.8366 124.964L68.3029 94.4226C71.9989 90.7174 78.0011 90.7174 81.6971 94.4226L112.163 124.964C112.969 125.776 113.927 126.421 114.982 126.861C116.038 127.301 117.17 127.527 118.314 127.527C119.458 127.527 120.59 127.301 121.646 126.861C122.701 126.421 123.659 125.776 124.465 124.964C125.277 124.159 125.921 123.201 126.361 122.145C126.801 121.089 127.027 119.957 127.027 118.813C127.027 117.669 126.801 116.537 126.361 115.481C125.921 114.425 125.277 113.467 124.465 112.661L93.9254 82.1888Z" fill="#CF142B"/>
<path fill-rule="evenodd" clip-rule="evenodd" d="M126.567 40.426L126.565 40.4284L96.0253 70.901C93.4854 73.4352 93.4854 77.55 96.0253 80.0843L126.558 110.551C126.559 110.552 126.56 110.553 126.561 110.554C127.65 111.635 128.515 112.921 129.105 114.338C129.696 115.756 130 117.277 130 118.813C130 120.349 129.696 121.87 129.105 123.288C128.516 124.702 127.654 125.986 126.567 127.066C125.487 128.153 124.203 129.016 122.789 129.605C121.371 130.196 119.85 130.5 118.314 130.5C116.778 130.5 115.257 130.196 113.839 129.605C112.422 129.015 111.136 128.15 110.055 127.06C110.054 127.059 110.053 127.059 110.052 127.058L79.5923 96.5222C77.0579 93.9815 72.9421 93.9815 70.4077 96.5222L39.9476 127.058C39.9468 127.058 39.946 127.059 39.9452 127.06C38.864 128.15 37.5779 129.015 36.161 129.605C34.743 130.196 33.2221 130.5 31.686 130.5C30.1499 130.5 28.629 130.196 27.211 129.605C25.7968 129.016 24.5129 128.153 23.433 127.066C22.3465 125.986 21.4839 124.702 20.8948 123.288C20.3041 121.87 20 120.349 20 118.813C20 117.277 20.3041 115.756 20.8948 114.338C21.4851 112.92 22.35 111.634 23.4395 110.553C23.4402 110.552 23.441 110.551 23.4417 110.551L53.9747 80.0843C56.5146 77.55 56.5146 73.4352 53.9747 70.901L23.4331 40.426C21.2443 38.2369 20.0148 35.268 20.0148 32.1725C20.0148 29.0769 21.2443 26.108 23.4331 23.9189C25.6218 21.7299 28.5905 20.5 31.686 20.5C34.7815 20.5 37.7502 21.7299 39.939 23.9189L70.4077 54.463C72.9421 57.0037 77.0579 57.0037 79.5923 54.463L110.061 23.9189C112.25 21.7299 115.218 20.5 118.314 20.5C121.41 20.5 124.378 21.7299 126.567 23.9189C128.756 26.108 129.985 29.0769 129.985 32.1725C129.985 35.268 128.756 38.2369 126.567 40.426ZM25.5354 112.661L56.0746 82.1888C59.7785 78.493 59.7786 72.4923 56.0746 68.7965L25.5354 38.3239C23.9042 36.6924 22.9878 34.4797 22.9878 32.1725C22.9878 29.8652 23.9042 27.6525 25.5354 26.021C27.1667 24.3895 29.3791 23.473 31.686 23.473C33.9929 23.473 36.2054 24.3895 37.8366 26.021L68.3029 56.5627C71.9989 60.2678 78.0011 60.2678 81.6971 56.5627L112.163 26.021C113.795 24.3895 116.007 23.473 118.314 23.473C120.621 23.473 122.833 24.3895 124.465 26.021C126.096 27.6525 127.012 29.8652 127.012 32.1725C127.012 34.4797 126.096 36.6924 124.465 38.3239L93.9254 68.7965C90.2215 72.4923 90.2215 78.4929 93.9254 82.1888L124.465 112.661C125.277 113.467 125.921 114.425 126.361 115.481C126.801 116.537 127.027 117.669 127.027 118.813C127.027 119.957 126.801 121.089 126.361 122.145C125.921 123.201 125.277 124.159 124.465 124.964C123.659 125.776 122.701 126.421 121.646 126.861C120.59 127.301 119.458 127.527 118.314 127.527C117.17 127.527 116.038 127.301 114.982 126.861C113.927 126.421 112.969 125.776 112.163 124.964L81.6971 94.4226C78.0011 90.7174 71.9989 90.7174 68.3029 94.4226L37.8366 124.964C37.0313 125.776 36.0732 126.421 35.0175 126.861C33.9619 127.301 32.8296 127.527 31.686 127.527C30.5424 127.527 29.4101 127.301 28.3545 126.861C27.2988 126.421 26.3407 125.776 25.5354 124.964C24.7235 124.159 24.079 123.201 23.6392 122.145C23.1994 121.089 22.973 119.957 22.973 118.813C22.973 117.669 23.1994 116.537 23.6392 115.481C24.079 114.425 24.7235 113.467 25.5354 112.661Z" fill="#CF142B"/>
</svg>
