<svg width="150" height="151" viewBox="0 0 150 151" fill="none" xmlns="http://www.w3.org/2000/svg">
<g clip-path="url(#clip0_1_18)">
<path d="M147.5 25.4999H2.4999C1.11943 25.4999 0 26.6193 0 28.0001V123C0 124.381 1.11943 125.5 2.4999 125.5H147.5C148.881 125.5 150 124.38 150 123V28.0001C150 26.6193 148.881 25.4999 147.5 25.4999ZM77.4999 58.1996C85.9664 59.419 92.4999 66.7013 92.4999 75.5C92.4999 84.2987 85.9664 91.5811 77.4999 92.8004V58.1996ZM5.0001 54.6661H25.0002V96.3336H5.0001V54.6661ZM72.5001 92.8004C64.0336 91.5811 57.5001 84.2987 57.5001 75.5C57.5001 66.7013 64.0336 59.419 72.5001 58.1996V92.8004ZM72.5001 53.1477C61.2677 54.3963 52.5 63.94 52.5 75.5C52.5 87.06 61.2677 96.6037 72.5001 97.8523V120.5H5.0001V101.334H27.5001C28.8809 101.334 30 100.214 30 98.8338V52.1662C30 50.7855 28.8806 49.6663 27.5001 49.6663H5.0001V30.5H72.5001V53.1477ZM145 96.3339H125V54.6661H145V96.3339ZM145 49.6663H122.5C121.119 49.6663 120 50.7857 120 52.1662V98.8338C120 100.215 121.119 101.334 122.5 101.334H145V120.5H77.4999V97.8523C88.7323 96.6034 97.5 87.06 97.5 75.5C97.5 63.94 88.7323 54.3963 77.4999 53.1477V30.5H145V49.6663Z" fill="white"/>
<path fill-rule="evenodd" clip-rule="evenodd" d="M2.4999 23.4999H147.5C149.985 23.4999 152 25.5147 152 28.0001V123C152 125.485 149.985 127.5 147.5 127.5H2.4999C0.0150261 127.5 -2 125.485 -2 123V28.0001C-2 25.5149 0.0147123 23.4999 2.4999 23.4999ZM150 28.0001V123C150 124.38 148.881 125.5 147.5 125.5H2.4999C1.11943 125.5 0 124.381 0 123V28.0001C0 26.6193 1.11943 25.4999 2.4999 25.4999H147.5C148.881 25.4999 150 26.6193 150 28.0001ZM77.4999 58.1996V92.8004C78.1798 92.7025 78.8473 92.5654 79.4999 92.3917C86.9737 90.4016 92.4999 83.5921 92.4999 75.5C92.4999 67.4079 86.9737 60.5984 79.4999 58.6083C78.8473 58.4346 78.1798 58.2975 77.4999 58.1996ZM79.4999 60.6876V90.3124C85.8591 88.3803 90.4999 82.4735 90.4999 75.5C90.4999 68.5265 85.8591 62.6197 79.4999 60.6876ZM23.0002 56.6661H7.0001V94.3336H23.0002V56.6661ZM72.5001 92.8004V58.1996C71.8202 58.2975 71.1527 58.4346 70.5001 58.6083C63.0263 60.5984 57.5001 67.4079 57.5001 75.5C57.5001 83.5921 63.0263 90.4016 70.5001 92.3917C71.1527 92.5654 71.8202 92.7025 72.5001 92.8004ZM70.5001 90.3124V60.6876C64.1409 62.6197 59.5001 68.5265 59.5001 75.5C59.5001 82.4735 64.1409 88.3803 70.5001 90.3124ZM70.5001 51.4242V32.5H7.0001V47.6663H27.5001C29.985 47.6663 32 49.6807 32 52.1662V98.8338C32 101.319 29.9856 103.334 27.5001 103.334H7.0001V118.5H70.5001V99.5758C59.1342 97.4565 50.5 87.4753 50.5 75.5C50.5 63.5247 59.1342 53.5436 70.5001 51.4242ZM72.5001 97.8523C61.2677 96.6037 52.5 87.06 52.5 75.5C52.5 63.94 61.2677 54.3963 72.5001 53.1477V30.5H5.0001V49.6663H27.5001C28.8806 49.6663 30 50.7855 30 52.1662V98.8338C30 100.214 28.8809 101.334 27.5001 101.334H5.0001V120.5H72.5001V97.8523ZM127 94.3339H143V56.6661H127V94.3339ZM122.5 47.6663H143V32.5H79.4999V51.4242C90.8658 53.5436 99.5 63.5247 99.5 75.5C99.5 87.4753 90.8657 97.4562 79.4999 99.5758V118.5H143V103.334H122.5C120.015 103.334 118 101.319 118 98.8338V52.1662C118 49.6813 120.014 47.6663 122.5 47.6663ZM77.4999 97.8523C88.7323 96.6034 97.5 87.06 97.5 75.5C97.5 63.94 88.7323 54.3963 77.4999 53.1477V30.5H145V49.6663H122.5C121.119 49.6663 120 50.7857 120 52.1662V98.8338C120 100.215 121.119 101.334 122.5 101.334H145V120.5H77.4999V97.8523ZM5.0001 54.6661V96.3336H25.0002V54.6661H5.0001ZM145 96.3339V54.6661H125V96.3339H145Z" fill="white"/>
</g>
<defs>
<clipPath id="clip0_1_18">
<rect width="150" height="150" fill="white" transform="translate(0 0.5)"/>
</clipPath>
</defs>
</svg>
