<svg width="1201" height="400" viewBox="0 0 1201 400" fill="none" xmlns="http://www.w3.org/2000/svg">
<g clip-path="url(#clip0_1_127)">
<rect width="1200" height="400" transform="translate(0.250977)" fill="#5997E3"/>
<path d="M-55.3075 305.689C-55.3075 305.689 190.184 338.242 345.889 338.242C449.159 338.242 597.747 334.994 678.634 333.016C717.229 332.073 755.718 332.273 794.319 332.876C873.712 334.116 1018.17 334.143 1120.21 321.281C1271.58 302.2 1491.21 312.948 1491.21 312.948L1504.65 562.984H-40.0966L-55.3075 305.689Z" fill="#609BE4"/>
<path d="M-191.589 443.392C-191.589 443.392 136.598 382.909 349.366 367.536C519.364 355.253 774.032 360.325 833.571 361.744C842.128 361.948 850.617 362.128 859.175 362.248L1353.48 369.215L1816.22 382.031L1833.36 562.414L-136.717 624.737L-191.589 443.392Z" fill="#6DA3E6"/>
<path d="M-81.0665 453.251C-81.0665 453.251 177.473 396.476 348.792 393.449C439.152 391.853 557.908 384.326 638.978 378.516C700.534 374.105 762.22 371.987 823.924 373.058L1129 378.351L1494.26 371.451L1508.33 571.255L-35.1169 634.511L-81.0665 453.251Z" fill="#80AFEA"/>
</g>
<defs>
<clipPath id="clip0_1_127">
<rect width="1200" height="400" fill="white" transform="translate(0.250977)"/>
</clipPath>
</defs>
</svg>
