<svg width="150" height="151" viewBox="0 0 150 151" fill="none" xmlns="http://www.w3.org/2000/svg">
<path d="M84.1058 150.5L71.9951 122.045C83.66 117.736 94.5818 111.941 104.686 105.181L84.1058 150.5ZM28.4563 78.5089L0 66.399L45.322 45.8195C38.5609 55.9235 32.7656 66.8447 28.4563 78.5089ZM129.353 15.3588C131.434 15.3588 133.291 15.3588 134.852 15.7303C136.115 26.0572 134.703 47.3054 110.333 71.6739C97.7024 84.3782 82.6198 94.1107 65.6798 100.574L49.7056 84.9725C56.5411 67.8105 66.2742 52.7288 78.8306 40.1731C99.337 19.6679 117.614 15.3588 129.353 15.3588ZM129.353 0.5C114.642 0.5 92.3529 5.6263 68.2802 29.6976C52.0089 45.9681 42.2758 63.873 35.9604 79.549C33.8801 85.1211 35.2917 91.2132 39.3781 95.3737L55.2037 111.124C58.027 113.947 61.8163 115.656 65.7541 115.656C67.4629 115.656 69.2461 115.21 70.955 114.542C86.8548 108.449 104.538 98.4941 120.809 82.2236C162.862 40.1731 147.111 3.39747 147.111 3.39747C147.111 3.39747 140.35 0.5 129.353 0.5ZM94.5818 55.9235C88.7866 50.1285 88.7866 40.6932 94.5818 34.8982C100.377 29.1033 109.813 29.1033 115.608 34.8982C121.329 40.6932 121.404 50.1285 115.608 55.9235C109.813 61.7184 100.377 61.7184 94.5818 55.9235ZM32.9142 149.088L59.9588 122.045C57.4327 121.377 54.9808 120.262 52.7519 118.702L22.4381 149.088H32.9142ZM1.41167 149.088H11.8877L47.3281 113.724L36.7777 103.249L1.41167 138.613V149.088ZM1.41167 128.063L31.7997 97.7511C30.2394 95.5223 29.125 93.1449 28.4563 90.5446L1.41167 117.588V128.063Z" fill="white"/>
</svg>
